Coordinates
version=1
nRows=40
nColumns=38
inDegrees=no

Units are S.I. units (second, meters, Newtons, ...)
If the header above contains a line with 'inDegrees', this indicates whether rotational values are in degrees (yes) or radians (no).

endheader
time	pelvis_tilt	pelvis_list	pelvis_rotation	pelvis_tx	pelvis_ty	pelvis_tz	hip_flexion_r	hip_adduction_r	hip_rotation_r	knee_angle_r	ankle_angle_r	subtalar_angle_r	mtp_angle_r	hip_flexion_l	hip_adduction_l	hip_rotation_l	knee_angle_l	ankle_angle_l	subtalar_angle_l	mtp_angle_l	lumbar_extension	lumbar_bending	lumbar_rotation	arm_flex_r	arm_add_r	arm_rot_r	elbow_flex_r	pro_sup_r	wrist_flex_r	wrist_dev_r	arm_flex_l	arm_add_l	arm_rot_l	elbow_flex_l	pro_sup_l	wrist_flex_l	wrist_dev_l
0	-0.0321347	1.31616	-1.291	0.613435	1.31464	0.960882	0.238102	-0.0554394	-0.0899292	1.2081	-0.311765	0	0	-0.285412	-0.0190298	-0.0424096	0.167593	-0.166858	0	0	-0.481081	0.147729	-0.0715821	-0.0970127	-0.594859	0.7902	0.852199	0.547587	0	0	-0.10679	-0.304124	0.329787	0.650992	1.1997	0	0
0.01	-0.0200268	1.31913	-1.29763	0.614872	1.30717	0.960169	0.254134	-0.0649151	-0.0970772	1.17836	-0.314475	0	0	-0.295812	-0.0169848	-0.036557	0.157669	-0.167106	0	0	-0.478086	0.146844	-0.0785259	-0.0905002	-0.594561	0.799986	0.849654	0.530665	0	0	-0.105231	-0.303378	0.324543	0.650547	1.20531	0	0
0.02	-0.0168309	1.32166	-1.29909	0.616007	1.29928	0.9595	0.265829	-0.0676768	-0.096644	1.139	-0.316899	0	0	-0.306349	-0.0171746	-0.0376556	0.14923	-0.165762	0	0	-0.474994	0.146561	-0.0813642	-0.0843009	-0.594198	0.810934	0.845904	0.519157	0	0	-0.103372	-0.301273	0.319014	0.647931	1.21125	0	0
0.03	-0.0140471	1.32497	-1.30165	0.616995	1.29122	0.958664	0.276217	-0.0696508	-0.0949743	1.09589	-0.317753	0	0	-0.316002	-0.0171494	-0.0397341	0.142031	-0.163156	0	0	-0.471082	0.145505	-0.08235	-0.0789456	-0.593951	0.822011	0.842365	0.511101	0	0	-0.101383	-0.299081	0.313906	0.645146	1.21734	0	0
0.04	-0.0108921	1.32933	-1.30627	0.617933	1.28324	0.957659	0.285576	-0.0705757	-0.090527	1.04849	-0.315182	0	0	-0.324062	-0.0158417	-0.0414431	0.136334	-0.159815	0	0	-0.466903	0.143714	-0.0816925	-0.0734653	-0.594435	0.833781	0.839592	0.505998	0	0	-0.0992996	-0.296732	0.308703	0.642831	1.22262	0	0
0.05	-0.00835865	1.33488	-1.31137	0.618762	1.27527	0.956499	0.293522	-0.0698522	-0.0833684	0.99589	-0.308996	0	0	-0.330479	-0.0139033	-0.0420364	0.1317	-0.155709	0	0	-0.461808	0.141413	-0.0802989	-0.0690632	-0.594439	0.84177	0.836679	0.499687	0	0	-0.0973297	-0.294449	0.303401	0.640262	1.22829	0	0
0.06	-0.00785913	1.33953	-1.31417	0.619438	1.26718	0.955372	0.297034	-0.0671587	-0.0749584	0.937378	-0.3004	0	0	-0.337836	-0.0135768	-0.0408335	0.127895	-0.150605	0	0	-0.457404	0.139836	-0.0786648	-0.0656719	-0.593904	0.84781	0.833937	0.493299	0	0	-0.0952545	-0.292405	0.298216	0.637318	1.23438	0	0
0.07	-0.0070242	1.34568	-1.31873	0.620019	1.25909	0.954007	0.300333	-0.0649198	-0.0667765	0.875379	-0.290821	0	0	-0.343023	-0.0120316	-0.0393541	0.125901	-0.14408	0	0	-0.451875	0.137422	-0.0759257	-0.0628336	-0.59355	0.852728	0.831455	0.487381	0	0	-0.0929039	-0.28992	0.292989	0.633681	1.24067	0	0
0.08	-0.00575012	1.35132	-1.3239	0.620543	1.25095	0.952603	0.301354	-0.0632579	-0.0609742	0.811051	-0.279536	0	0	-0.348278	-0.0104111	-0.0382176	0.124945	-0.135926	0	0	-0.446879	0.135188	-0.0725189	-0.0604089	-0.59366	0.857921	0.829622	0.481372	0	0	-0.0899919	-0.286661	0.286727	0.628913	1.24882	0	0
0.09	-0.00387824	1.35573	-1.32951	0.621019	1.24271	0.951214	0.299565	-0.0620416	-0.0585979	0.745348	-0.266694	0	0	-0.35467	-0.00903686	-0.0370748	0.124279	-0.128383	0	0	-0.443014	0.133144	-0.0688581	-0.0585903	-0.593875	0.862397	0.828459	0.476264	0	0	-0.0872565	-0.284049	0.281249	0.624761	1.25746	0	0
0.1	-0.000634567	1.35963	-1.33637	0.621405	1.2343	0.94974	0.2961	-0.0613005	-0.058996	0.679469	-0.25433	0	0	-0.361393	-0.0076761	-0.0362284	0.124509	-0.121328	0	0	-0.439739	0.130744	-0.0655235	-0.0576547	-0.593622	0.865219	0.827578	0.47267	0	0	-0.0855703	-0.282849	0.277087	0.622707	1.26373	0	0
0.11	0.00285454	1.36277	-1.34278	0.621726	1.22564	0.948183	0.290326	-0.0609246	-0.0643249	0.612643	-0.244773	0	0	-0.368596	-0.00692139	-0.0360584	0.125978	-0.11283	0	0	-0.436869	0.128836	-0.0630374	-0.0577324	-0.593503	0.866744	0.827729	0.468673	0	0	-0.0850148	-0.2819	0.272011	0.621718	1.27007	0	0
0.12	0.0041288	1.36662	-1.34728	0.622033	1.21693	0.946534	0.283256	-0.0594504	-0.0687823	0.542145	-0.239936	0	0	-0.374251	-0.00626502	-0.0369281	0.129144	-0.10412	0	0	-0.433372	0.127487	-0.0605866	-0.0581441	-0.593492	0.86703	0.828185	0.465151	0	0	-0.0843944	-0.280585	0.267385	0.619946	1.27688	0	0
0.13	-0.0755404	1.37505	-1.28007	0.622686	1.2104	0.946526	0.316643	-0.051884	-0.100446	0.544252	-0.247311	0	0	-0.365737	-0.015135	-0.0409708	0.140224	-0.093098	0	0	-0.42655	0.140601	-0.0398229	-0.0497808	-0.595335	0.877226	0.814663	0.457882	0	0	-0.0601329	-0.259289	0.259249	0.579681	1.30117	0	0
0.14	-0.00527084	1.37826	-1.34704	0.622616	1.1994	0.943024	0.259692	-0.0499612	-0.058443	0.36915	-0.247239	0	0	-0.379222	-0.00485363	-0.0425842	0.1396	-0.083858	0	0	-0.421475	0.126327	-0.0500184	-0.0598851	-0.593949	0.870896	0.826526	0.457977	0	0	-0.0784818	-0.271108	0.25064	0.605354	1.30252	0	0
0.15	-0.085072	1.37942	-1.27819	0.623157	1.19267	0.943468	0.306536	-0.0443147	-0.10797	0.445076	-0.228691	0	0	-0.378804	-0.0159279	-0.0492126	0.149522	-0.0760957	0	0	-0.423841	0.140861	-0.0339122	-0.0481837	-0.595967	0.882903	0.815561	0.457925	0	0	-0.0600194	-0.255248	0.244824	0.577224	1.31681	0	0
0.16	-0.00967918	1.37903	-1.34722	0.62301	1.18114	0.940107	0.232386	-0.0404983	-0.0515716	0.242168	-0.247833	0	0	-0.396462	-0.00774875	-0.0507013	0.148838	-0.067898	0	0	-0.421833	0.12737	-0.0479943	-0.0599149	-0.593197	0.87194	0.828073	0.457318	0	0	-0.0812786	-0.269264	0.236961	0.606813	1.31698	0	0
0.17	-0.0117676	1.37621	-1.34602	0.623221	1.17195	0.938912	0.213563	-0.0348473	-0.0486909	0.182325	-0.259253	0	0	-0.408115	-0.0106049	-0.0552467	0.153671	-0.0628891	0	0	-0.426079	0.128855	-0.0494776	-0.0591895	-0.592662	0.870787	0.82994	0.45855	0	0	-0.0847691	-0.271098	0.233263	0.612444	1.31623	0	0
0.18	-0.0142097	1.37387	-1.34461	0.623464	1.16276	0.937689	0.197112	-0.029414	-0.0467408	0.133493	-0.268779	0	0	-0.418507	-0.0131971	-0.0600795	0.1602	-0.0567238	0	0	-0.429575	0.13051	-0.049819	-0.0592961	-0.592812	0.869615	0.83248	0.459759	0	0	-0.0868276	-0.271874	0.229796	0.615549	1.31688	0	0
0.19	-0.0171539	1.37206	-1.34197	0.623761	1.15349	0.93647	0.185024	-0.0245566	-0.0484958	0.102563	-0.276049	0	0	-0.427591	-0.0160244	-0.0638224	0.168354	-0.0508419	0	0	-0.432165	0.13254	-0.0505503	-0.0601585	-0.59297	0.86771	0.835052	0.460334	0	0	-0.0884984	-0.27236	0.226608	0.617471	1.31765	0	0
0.2	-0.021551	1.37055	-1.33739	0.624089	1.14416	0.935329	0.177909	-0.0198299	-0.0528348	0.091758	-0.279908	0	0	-0.435665	-0.0193352	-0.0668155	0.177452	-0.0469046	0	0	-0.434114	0.135048	-0.0518584	-0.0610356	-0.592724	0.86549	0.836641	0.4602	0	0	-0.0900197	-0.272878	0.224459	0.618751	1.31799	0	0
0.21	-0.0281319	1.36746	-1.33012	0.624441	1.13479	0.934393	0.171839	-0.0142832	-0.0576926	0.0942402	-0.284321	0	0	-0.444696	-0.0238552	-0.0696265	0.18758	-0.0423437	0	0	-0.437697	0.138712	-0.0536496	-0.0617991	-0.592813	0.863121	0.838876	0.46033	0	0	-0.091768	-0.273262	0.222243	0.620611	1.31813	0	0
0.22	-0.0364405	1.36277	-1.32036	0.624807	1.12539	0.933678	0.168601	-0.00807225	-0.0670375	0.114905	-0.287776	0	0	-0.45462	-0.0297021	-0.0719242	0.198834	-0.0367101	0	0	-0.443287	0.143555	-0.0561626	-0.0622261	-0.593348	0.860943	0.842178	0.461759	0	0	-0.0940828	-0.273804	0.219216	0.623648	1.31835	0	0
0.23	-0.0454256	1.35896	-1.30834	0.625168	1.11571	0.933025	0.171099	-0.00227979	-0.0838551	0.155334	-0.28344	0	0	-0.463032	-0.036729	-0.0720948	0.211218	-0.031094	0	0	-0.447618	0.148706	-0.0608551	-0.062253	-0.592522	0.859959	0.843951	0.465993	0	0	-0.0975746	-0.274062	0.213519	0.626285	1.31886	0	0
0.24	-0.054737	1.35635	-1.29601	0.625549	1.10581	0.932372	0.176562	0.0030797	-0.101267	0.20437	-0.271532	0	0	-0.469833	-0.0436774	-0.0718467	0.224658	-0.0275821	0	0	-0.449933	0.153548	-0.0661747	-0.0624306	-0.590923	0.858783	0.844176	0.470181	0	0	-0.101748	-0.273456	0.205805	0.627743	1.3207	0	0
0.25	-0.0639991	1.35395	-1.28329	0.626011	1.09566	0.931786	0.179958	0.0084647	-0.11656	0.248639	-0.256689	0	0	-0.476183	-0.050883	-0.0716982	0.238911	-0.0259464	0	0	-0.451162	0.158653	-0.0717884	-0.0631776	-0.589661	0.858211	0.844489	0.474335	0	0	-0.106165	-0.272396	0.19786	0.628272	1.32376	0	0
0.26	-0.0746482	1.35152	-1.26808	0.626549	1.08524	0.931344	0.178902	0.0143483	-0.12797	0.278114	-0.244366	0	0	-0.482043	-0.0591506	-0.0711461	0.254141	-0.0257194	0	0	-0.45153	0.164669	-0.0783972	-0.0653392	-0.588602	0.855257	0.845399	0.476598	0	0	-0.110893	-0.271384	0.190539	0.628031	1.3277	0	0
0.27	-0.0882315	1.3486	-1.24907	0.627091	1.07458	0.931117	0.17425	0.0209433	-0.134941	0.292974	-0.240022	0	0	-0.487524	-0.0688668	-0.0708708	0.270453	-0.0267279	0	0	-0.451661	0.171724	-0.0852403	-0.068347	-0.587565	0.851609	0.846548	0.478178	0	0	-0.115685	-0.2704	0.183509	0.627616	1.33192	0	0
0.28	-0.0801843	1.35987	-1.25684	0.628717	1.0643	0.929695	0.189845	0.013613	-0.130011	0.31975	-0.23911	0	0	-0.477346	-0.0624928	-0.0633651	0.293485	-0.024578	0	0	-0.439714	0.17031	-0.0918679	-0.072248	-0.59036	0.847273	0.849907	0.481817	0	0	-0.121317	-0.263822	0.169127	0.625052	1.34174	0	0
0.29	-0.100901	1.35987	-1.23296	0.629022	1.05329	0.929535	0.185632	0.0215369	-0.127566	0.321304	-0.253285	0	0	-0.477065	-0.071796	-0.0638898	0.314791	-0.0271537	0	0	-0.435959	0.176755	-0.096208	-0.0758464	-0.589884	0.845873	0.850926	0.484405	0	0	-0.126815	-0.262021	0.16069	0.62505	1.34754	0	0
0.3	-0.121116	1.36121	-1.21126	0.629204	1.04219	0.929316	0.18087	0.0294434	-0.121551	0.320179	-0.274411	0	0	-0.473971	-0.079808	-0.0641609	0.33907	-0.031027	0	0	-0.43112	0.181932	-0.0998085	-0.0793167	-0.589479	0.844309	0.851889	0.48663	0	0	-0.133416	-0.260044	0.151157	0.626036	1.35241	0	0
0.31	-0.144576	1.36329	-1.18713	0.629174	1.03078	0.929127	0.175435	0.0380327	-0.113188	0.318418	-0.297398	0	0	-0.468494	-0.0885658	-0.0629671	0.366355	-0.0363646	0	0	-0.424851	0.186691	-0.103014	-0.0822433	-0.587707	0.844381	0.850137	0.490114	0	0	-0.140345	-0.257195	0.139144	0.625011	1.35937	0	0
0.32	-0.173839	1.36674	-1.15614	0.629047	1.01902	0.928963	0.172701	0.0464	-0.106184	0.32233	-0.315014	0	0	-0.458909	-0.098877	-0.057968	0.397823	-0.0434756	0	0	-0.415465	0.191765	-0.107324	-0.0851378	-0.584015	0.845525	0.844795	0.49409	0	0	-0.146851	-0.25339	0.125201	0.620222	1.37092	0	0
0.33	-0.209802	1.37036	-1.12061	0.628807	1.00725	0.928797	0.174653	0.0548472	-0.0991968	0.337644	-0.322822	0	0	-0.446381	-0.10898	-0.0546113	0.433867	-0.0524992	0	0	-0.405901	0.197172	-0.109417	-0.0878006	-0.58188	0.84767	0.84076	0.497618	0	0	-0.153414	-0.248898	0.110359	0.616083	1.38289	0	0
0.34	-0.25195	1.37368	-1.08168	0.628468	0.995567	0.92867	0.180429	0.0636483	-0.0934317	0.362111	-0.320567	0	0	-0.430984	-0.118613	-0.052738	0.475559	-0.0636691	0	0	-0.396692	0.203106	-0.109079	-0.0899687	-0.58237	0.851252	0.839627	0.500723	0	0	-0.16024	-0.242851	0.0924976	0.61263	1.39781	0	0
0.35	-0.295668	1.37467	-1.04323	0.628002	0.983972	0.928771	0.184437	0.0737978	-0.0894951	0.386349	-0.313487	0	0	-0.415041	-0.128825	-0.0505503	0.522267	-0.0775887	0	0	-0.39023	0.209837	-0.105828	-0.0929116	-0.585516	0.854112	0.842636	0.501818	0	0	-0.166899	-0.237588	0.0776701	0.611506	1.41088	0	0
0.36	-0.402956	1.36957	-0.948917	0.627712	0.974057	0.930812	0.22095	0.0874829	-0.130019	0.484896	-0.29727	0	0	-0.392646	-0.148893	-0.0508278	0.575883	-0.0999427	0	0	-0.386989	0.230872	-0.0872891	-0.0894325	-0.592732	0.862547	0.839675	0.496003	0	0	-0.154902	-0.217996	0.0524956	0.584347	1.44606	0	0
0.37	-0.384324	1.37314	-0.9694	0.626748	0.960726	0.929449	0.186712	0.0961515	-0.0929553	0.42978	-0.288526	0	0	-0.377926	-0.150391	-0.0451642	0.630176	-0.116677	0	0	-0.379468	0.224328	-0.0926507	-0.10278	-0.596596	0.856212	0.85623	0.494413	0	0	-0.177811	-0.222388	0.0385015	0.606736	1.45144	0	0
0.38	-0.411861	1.36605	-0.949528	0.625992	0.949173	0.930408	0.169859	0.109768	-0.0927972	0.424454	-0.288621	0	0	-0.363349	-0.163119	-0.0440265	0.687274	-0.137546	0	0	-0.382592	0.231157	-0.0872954	-0.105394	-0.601534	0.856809	0.863906	0.494416	0	0	-0.187699	-0.220453	0.0292476	0.615054	1.4536	0	0
0.39	-0.435349	1.35924	-0.935584	0.625137	0.937637	0.931153	0.152922	0.122198	-0.0946306	0.42179	-0.283987	0	0	-0.346112	-0.175085	-0.0457316	0.748896	-0.169601	0	0	-0.386166	0.236932	-0.0803535	-0.108817	-0.608755	0.85756	0.875416	0.493305	0	0	-0.19883	-0.218102	0.0181165	0.625487	1.45728	0	0
